<?xml version="1.0" standalone="no"?>
<!DOCTYPE svg PUBLIC "-//W3C//DTD SVG 20010904//EN"
 "http://www.w3.org/TR/2001/REC-SVG-20010904/DTD/svg10.dtd">
<svg version="1.0" xmlns="http://www.w3.org/2000/svg"
 width="800.000000pt" height="800.000000pt" viewBox="0 0 800.000000 800.000000"
 preserveAspectRatio="xMidYMid meet">
<metadata>
Created by potrace 1.14, written by Peter Selinger 2001-2017
</metadata>
<g transform="translate(0.000000,800.000000) scale(0.100000,-0.100000)"
fill="#000000" stroke="none">
<path d="M1693 7989 c-339 -26 -690 -160 -963 -369 -329 -252 -564 -608 -665
-1010 -57 -224 -55 -135 -55 -2601 0 -1535 3 -2301 11 -2367 69 -636 455
-1181 1031 -1457 219 -105 429 -158 688 -175 201 -13 4330 -13 4530 0 259 17
470 70 688 175 550 264 928 776 1024 1385 11 69 13 523 13 2435 0 2242 -1
2355 -18 2455 -69 389 -240 721 -512 996 -312 314 -716 499 -1168 534 -157 12
-4448 11 -4604 -1z m2761 -1008 c1112 -173 2034 -945 2396 -2006 99 -292 148
-564 157 -880 8 -287 -17 -535 -81 -800 -205 -844 -780 -1569 -1553 -1963
-319 -162 -586 -247 -953 -303 -119 -18 -190 -22 -400 -23 -278 -1 -379 8
-610 54 -1129 225 -2037 1092 -2321 2213 -108 429 -118 899 -28 1347 180 893
790 1677 1624 2085 286 140 582 233 877 275 205 28 197 28 488 25 212 -2 293
-7 404 -24z"/>
<path d="M3806 6490 c-315 -27 -609 -108 -902 -251 -247 -120 -463 -276 -669
-484 -384 -386 -627 -882 -700 -1430 -22 -160 -22 -471 0 -630 62 -465 245
-894 532 -1250 390 -485 934 -797 1568 -902 158 -26 583 -26 740 0 297 50 540
130 785 258 240 126 430 270 630 475 358 368 579 803 672 1321 20 114 23 160
23 408 0 313 -12 413 -80 660 -265 967 -1104 1691 -2101 1814 -124 15 -376 21
-498 11z m108 -381 c4 -55 2 -122 -5 -170 -13 -90 2 -81 -149 -98 -52 -6 -142
-22 -199 -36 -58 -14 -108 -22 -112 -18 -8 10 -102 313 -97 317 6 6 165 45
243 60 87 18 206 33 271 35 l41 1 7 -91z m409 65 c103 -14 306 -61 320 -74 4
-4 -14 -78 -40 -164 -43 -140 -50 -156 -68 -152 -11 2 -69 16 -130 30 -60 14
-150 29 -198 34 -49 6 -90 12 -92 14 -20 19 -36 314 -19 331 8 7 90 1 227 -19z
m-248 -454 c36 -245 65 -449 65 -455 0 -5 -4 -4 -9 3 -6 11 -39 14 -135 13
-81 -1 -126 2 -126 9 0 8 126 873 131 899 3 14 12 -44 74 -469z m-835 156 c34
-81 60 -150 58 -151 -2 -2 -52 -28 -113 -59 -60 -30 -152 -84 -204 -119 l-95
-65 -103 134 c-57 73 -103 135 -103 138 0 3 52 40 116 82 127 85 364 208 376
196 4 -4 35 -74 68 -156z m1752 87 c149 -77 324 -193 322 -215 -1 -15 -183
-258 -193 -258 -4 0 -63 37 -133 83 -69 46 -160 99 -202 117 -42 19 -75 39
-72 44 80 202 123 296 134 296 8 0 73 -30 144 -67z m-2333 -459 l110 -121 -56
-54 c-59 -58 -199 -228 -229 -278 -10 -17 -22 -31 -28 -31 -6 0 -264 159 -285
176 -5 4 82 126 150 209 72 89 208 227 219 223 5 -2 58 -57 119 -124z m2779
87 c-18 -21 -69 -77 -112 -125 -79 -86 -79 -86 -60 -109 l18 -22 -23 22 -24
22 33 38 c65 74 194 213 198 213 2 0 -11 -17 -30 -39z m-1571 -358 c-3 -10 -5
-4 -5 12 0 17 2 24 5 18 2 -7 2 -21 0 -30z m280 -25 c-3 -7 -5 -2 -5 12 0 14
2 19 5 13 2 -7 2 -19 0 -25z m-290 -40 c-3 -7 -5 -2 -5 12 0 14 2 19 5 13 2
-7 2 -19 0 -25z m300 -20 c-3 -8 -6 -5 -6 6 -1 11 2 17 5 13 3 -3 4 -12 1 -19z
m-310 -50 c-3 -7 -5 -2 -5 12 0 14 2 19 5 13 2 -7 2 -19 0 -25z m320 -20 c-3
-8 -6 -5 -6 6 -1 11 2 17 5 13 3 -3 4 -12 1 -19z m-330 -40 c-3 -8 -6 -5 -6 6
-1 11 2 17 5 13 3 -3 4 -12 1 -19z m-1602 -83 l143 -76 -43 -97 c-45 -102
-100 -260 -111 -318 -3 -19 -10 -34 -15 -34 -9 0 -284 58 -311 66 -15 4 -14
15 13 112 43 161 149 422 171 422 5 0 74 -34 153 -75z m1592 13 c-3 -8 -6 -5
-6 6 -1 11 2 17 5 13 3 -3 4 -12 1 -19z m360 -20 c-3 -8 -6 -5 -6 6 -1 11 2
17 5 13 3 -3 4 -12 1 -19z m-370 -50 c-3 -8 -6 -5 -6 6 -1 11 2 17 5 13 3 -3
4 -12 1 -19z m380 -20 c-3 -8 -6 -5 -6 6 -1 11 2 17 5 13 3 -3 4 -12 1 -19z
m1502 -143 c0 -5 -15 19 -34 55 -19 36 -34 70 -34 75 0 6 15 -19 34 -55 19
-36 34 -69 34 -75z m-1892 93 c-3 -7 -5 -2 -5 12 0 14 2 19 5 13 2 -7 2 -19 0
-25z m400 -20 c-3 -8 -6 -5 -6 6 -1 11 2 17 5 13 3 -3 4 -12 1 -19z m-410 -40
c-3 -8 -6 -5 -6 6 -1 11 2 17 5 13 3 -3 4 -12 1 -19z m-10 -70 c-3 -8 -6 -5
-6 6 -1 11 2 17 5 13 3 -3 4 -12 1 -19z m1933 -13 c0 -5 -5 -3 -10 5 -5 8 -10
20 -10 25 0 6 5 3 10 -5 5 -8 10 -19 10 -25z m-1943 -57 c-3 -8 -6 -5 -6 6 -1
11 2 17 5 13 3 -3 4 -12 1 -19z m-10 -70 c-3 -8 -6 -5 -6 6 -1 11 2 17 5 13 3
-3 4 -12 1 -19z m480 -20 c-3 -8 -6 -5 -6 6 -1 11 2 17 5 13 3 -3 4 -12 1 -19z
m1520 -10 c-3 -8 -6 -5 -6 6 -1 11 2 17 5 13 3 -3 4 -12 1 -19z m-2010 -40
c-3 -7 -5 -2 -5 12 0 14 2 19 5 13 2 -7 2 -19 0 -25z m2358 12 c-3 -5 -16 -10
-28 -9 -20 1 -20 2 3 9 14 4 26 8 28 9 2 1 0 -3 -3 -9z m-1858 -32 c-3 -8 -6
-5 -6 6 -1 11 2 17 5 13 3 -3 4 -12 1 -19z m1783 12 c-14 -4 -34 -8 -45 -8
-16 0 -15 2 5 8 14 4 34 8 45 8 16 0 15 -2 -5 -8z m-90 -20 c-14 -4 -34 -8
-45 -8 -16 0 -15 2 5 8 14 4 34 8 45 8 16 0 15 -2 -5 -8z m-2203 -32 c-3 -8
-6 -5 -6 6 -1 11 2 17 5 13 3 -3 4 -12 1 -19z m2113 12 c-14 -4 -36 -8 -50 -8
-22 0 -22 1 5 8 17 4 39 8 50 8 16 0 15 -2 -5 -8z m-2123 -82 c-3 -8 -6 -5 -6
6 -1 11 2 17 5 13 3 -3 4 -12 1 -19z m-1710 -64 c78 -9 146 -20 152 -23 6 -4
6 -47 0 -124 -7 -77 -7 -157 0 -234 5 -65 8 -119 7 -121 -6 -6 -327 -45 -331
-40 -13 13 -27 246 -21 363 9 175 14 207 35 201 9 -2 80 -12 158 -22z m1700
-6 c-3 -8 -6 -5 -6 6 -1 11 2 17 5 13 3 -3 4 -12 1 -19z m-10 -70 c-3 -8 -6
-5 -6 6 -1 11 2 17 5 13 3 -3 4 -12 1 -19z m580 -20 c-3 -8 -6 -5 -6 6 -1 11
2 17 5 13 3 -3 4 -12 1 -19z m-590 -40 c-3 -8 -6 -5 -6 6 -1 11 2 17 5 13 3
-3 4 -12 1 -19z m381 -37 c93 -66 74 -206 -33 -247 -172 -65 -268 187 -101
262 40 18 97 12 134 -15z m-391 -33 c-3 -8 -6 -5 -6 6 -1 11 2 17 5 13 3 -3 4
-12 1 -19z m620 -20 c-3 -8 -6 -5 -6 6 -1 11 2 17 5 13 3 -3 4 -12 1 -19z
m-630 -40 c-3 -8 -6 -5 -6 6 -1 11 2 17 5 13 3 -3 4 -12 1 -19z m-1452 -460
c21 -88 77 -242 117 -322 16 -32 28 -59 26 -61 -12 -11 -300 -156 -303 -153
-32 32 -170 406 -181 492 l-6 42 158 36 c88 20 162 37 165 37 4 1 14 -32 24
-71z m3880 -8 c7 -11 -14 -114 -22 -107 -2 3 1 26 8 52 10 39 9 49 -2 56 -9 6
-10 9 -2 9 6 0 15 -5 18 -10z m-31 -154 c-3 -15 -8 -25 -11 -23 -2 3 -1 17 3
31 3 15 8 25 11 23 2 -3 1 -17 -3 -31z m-45 -135 c-6 -18 -13 -30 -15 -28 -2
2 1 18 7 36 6 18 13 30 15 28 2 -2 -1 -18 -7 -36z m-60 -145 c-23 -53 -45 -96
-49 -96 -5 0 13 45 38 99 26 55 48 98 50 97 1 -2 -16 -47 -39 -100z m-2609
-546 l0 -131 -127 3 -128 3 -3 128 -3 127 131 0 130 0 0 -130z m508 3 l-3
-128 -127 -3 -128 -3 0 131 0 130 130 0 131 0 -3 -127z m507 -3 l0 -125 -127
-3 -128 -3 0 131 0 131 128 -3 127 -3 0 -125z m510 0 l0 -125 -127 -3 -128 -3
0 131 0 131 128 -3 127 -3 0 -125z"/>
</g>
</svg>
